<?xml version="1.0" standalone="no"?>
<!DOCTYPE svg PUBLIC "-//W3C//DTD SVG 20010904//EN"
 "http://www.w3.org/TR/2001/REC-SVG-20010904/DTD/svg10.dtd">
<svg version="1.0" xmlns="http://www.w3.org/2000/svg"
 width="168.000000pt" height="168.000000pt" viewBox="0 0 168.000000 168.000000"
 preserveAspectRatio="xMidYMid meet">
<metadata>
Created by potrace 1.11, written by Peter Selinger 2001-2013
</metadata>
<g transform="translate(0.000000,168.000000) scale(0.100000,-0.100000)"
fill="#000000" stroke="none">
<path d="M1078 1542 c-15 -3 -18 -14 -18 -63 0 -32 -2 -59 -6 -59 -3 0 -53 28
-111 61 -80 47 -110 59 -122 52 -9 -5 -36 -21 -61 -35 -107 -60 -126 -71 -135
-78 -5 -4 -35 -21 -65 -37 -30 -17 -75 -42 -100 -57 -25 -15 -53 -29 -62 -33
-10 -3 -18 -9 -18 -14 0 -5 -4 -9 -10 -9 -5 0 -33 -14 -62 -31 -53 -32 -96
-56 -153 -89 -28 -16 -30 -20 -33 -88 -2 -41 1 -72 7 -72 5 0 65 32 133 71 67
40 148 85 178 102 30 16 66 38 80 47 14 9 50 30 80 47 30 17 71 39 91 51 20
11 47 26 60 34 13 7 26 15 29 18 3 3 17 11 31 18 28 15 30 15 217 -97 29 -17
54 -31 56 -31 2 0 34 -18 70 -40 36 -22 70 -40 76 -40 5 0 10 -4 10 -9 0 -5 8
-11 18 -14 9 -4 37 -18 62 -33 49 -29 90 -53 148 -85 20 -11 41 -25 47 -30 5
-5 16 -9 25 -9 14 0 17 12 17 69 -1 74 2 69 -73 112 -19 10 -50 28 -69 39 -19
11 -51 29 -70 40 -19 11 -52 29 -72 41 -21 11 -43 26 -48 34 -6 7 -10 58 -9
114 0 66 -3 101 -10 102 -29 4 -113 4 -128 1z"/>
<path d="M790 1250 c-14 -11 -28 -20 -31 -20 -4 0 -37 -18 -73 -40 -36 -22
-70 -40 -76 -40 -5 0 -10 -4 -10 -9 0 -5 -8 -11 -17 -14 -18 -6 -86 -43 -197
-106 l-56 -32 0 -287 c0 -158 4 -291 8 -297 7 -10 14 -14 101 -63 25 -14 63
-36 83 -49 21 -12 40 -23 44 -23 3 0 18 -8 32 -18 15 -11 52 -32 82 -49 30
-17 78 -44 106 -61 l52 -30 33 20 c19 12 49 29 67 39 17 11 48 28 67 39 19 11
51 29 70 40 19 11 52 30 73 42 20 11 46 26 57 32 11 7 46 27 78 45 l57 33 0
49 c2 292 0 530 -4 538 -4 5 -19 16 -34 24 -88 46 -117 63 -120 70 -2 4 -12 7
-23 7 -10 0 -19 5 -19 10 0 6 -7 10 -15 10 -8 0 -15 3 -15 8 0 4 -17 15 -37
24 -38 18 -94 49 -103 58 -3 3 -18 12 -35 20 -16 8 -32 17 -35 20 -13 13 -51
30 -67 30 -10 0 -29 -9 -43 -20z m83 -132 c12 -7 24 -16 27 -19 3 -3 25 -16
50 -30 25 -13 47 -26 50 -29 3 -3 19 -12 35 -20 50 -25 56 -40 22 -56 -42 -21
-112 -59 -117 -64 -3 -3 -18 -12 -35 -20 -16 -8 -36 -21 -43 -27 -19 -19 -23
-18 -106 32 -42 25 -81 45 -86 45 -6 0 -10 4 -10 8 0 5 -16 14 -35 22 -50 19
-46 27 28 69 59 33 109 62 142 82 37 22 49 23 78 7z m-391 -215 c3 -8 105 -73
113 -73 2 0 28 -14 57 -31 49 -30 78 -46 139 -81 13 -7 27 -17 31 -22 3 -5 23
1 45 14 45 27 93 54 148 83 22 12 42 24 45 27 5 5 20 14 89 52 20 11 40 24 45
29 6 5 13 9 16 9 4 0 6 -98 6 -217 l-1 -218 -115 -67 c-63 -37 -149 -86 -190
-109 l-75 -41 -35 19 c-19 10 -69 38 -110 63 -41 25 -88 52 -105 60 -16 8 -32
17 -35 20 -3 3 -17 11 -32 19 -64 33 -63 29 -61 237 2 239 1 234 12 234 5 0
11 -3 13 -7z"/>
</g>
</svg>
